<svg id="uuid-a55d5131-434a-43b5-8a85-923d3bdf1ab2" xmlns="http://www.w3.org/2000/svg" viewBox="0 0 256 256">
  <defs>
    <style>.uuid-86bf6a54-7a77-48b5-957e-0d79ea246cde {
      /*fill: #94a3b8;*/
    }</style>
  </defs>
  <path class="uuid-86bf6a54-7a77-48b5-957e-0d79ea246cde"
        d="m114,13c55.69,0,101,45.31,101,101s-45.31,101-101,101S13,169.69,13,114,58.31,13,114,13m0-13C51.04,0,0,51.04,0,114s51.04,114,114,114,114-51.04,114-114S176.96,0,114,0h0Z" />
  <path class="uuid-86bf6a54-7a77-48b5-957e-0d79ea246cde"
        d="m198.6,189.4l-9.19,9.19,55.5,55.5c1.27,1.27,2.93,1.9,4.6,1.9s3.33-.63,4.6-1.9c2.54-2.54,2.54-6.65,0-9.19l-55.5-55.5h0Z" />
</svg>
